<?xml version="1.0" encoding="UTF-8"?>
<svg width="229px" height="142px" viewBox="0 0 229 142" version="1.1" xmlns="http://www.w3.org/2000/svg" xmlns:xlink="http://www.w3.org/1999/xlink">
    <!-- Generator: Sketch 62 (91390) - https://sketch.com -->
    <title>Group 11</title>
    <desc>Created with Sketch.</desc>
    <defs>
        <polygon id="path-1" points="0 142 228.595 142 228.595 0.273 0 0.273"></polygon>
    </defs>
    <g id="Page-1" stroke="none" stroke-width="1" fill="none" fill-rule="evenodd">
        <g id="&lt;!---Generator:-Adobe-Illustrator-24.0.3,-SVG-Export-Plug-In----&gt;-&lt;svg-version=&quot;1.1&quot;-xmlns=&quot;http://www.w3.org/2000/svg&quot;-xmlns:xlink=&quot;http://www.w3.org/1999/xlink&quot;-x=&quot;0px&quot;-y=&quot;0px&quot;-width=&quot;228.6px&quot;---height=&quot;141.7px&quot;-viewBox=&quot;0-0-228.6-141.7&quot;-style=&quot;enable-background:new-0-0-228.6-141.7;&quot;-xml:space=&quot;preserve&quot;&gt;-&lt;style-type=&quot;text/css&quot;&gt;--.st0{fill:#782F40;}--.st1{fill:#FFFFFF;}--.st2{fill:#ACA39A;}-&lt;/style&gt;-&lt;defs&gt;-&lt;/defs&gt;-&lt;rect-y=&quot;109.7&quot;-class=&quot;st0&quot;-width=&quot;228.6&quot;-height=&quot;32&quot;/&gt;-&lt;path-class=&quot;st1&quot;-d=&quot;M202.3,130.9h1.9v-3.3h1l2,3.3h2.2l-2.7-4.1v0l2.4-3.4h-2.1l-1.8,2.7h-0.9v-5.6h-1.9V130.9z-M193,128.2--c0,2.1,1,2.9,2.6,2.9c1.3,0,2.3-0.8,2.6-1.6h0c0,0,0,0.2,0,0.5v0.9h1.8v-7.6h-1.9v3.5c0,1.3-0.8,2.5-2.1,2.5c-0.9,0-1.2-0.6-1.2-1.5--v-4.5H193V128.2z-M189,130.9h1.9V129H189V130.9z-M181,127.1c0-1.4,1-2.4,2.3-2.4c1.2,0,2.2,1,2.2,2.4c0,1.4-1,2.4-2.2,2.4--C182,129.5,181,128.5,181,127.1-M179.1,127.1c0,2.3,1.9,4,4.2,4c2.3,0,4.1-1.6,4.1-4c0-2.3-1.9-4-4.2-4--C180.9,123.2,179.1,124.8,179.1,127.1-M170.8,127.1c0,2.2,1.6,4,4.1,4c2,0,3.1-1.2,3.1-1.2l-0.7-1.3c0,0-0.9,1-2.2,1--c-1.4,0-2.4-1.1-2.4-2.4c0-1.3,0.9-2.3,2.3-2.3c1.2,0,2,0.8,2,0.8l0.8-1.3c0,0-0.9-1.1-2.9-1.1C172.4,123.2,170.8,125,170.8,127.1---M167.3,130.9h1.9V129h-1.9V130.9z-M160.5,126.2c0.2-1,0.8-1.6,1.8-1.6c0.8,0,1.5,0.5,1.5,1.6H160.5z-M158.5,127.1--c0,2.1,1.6,4,4.1,4c1.9,0,3-1.1,3-1.1l-0.7-1.3c0,0-1,0.8-2.2,0.8c-1.1,0-2.1-0.7-2.3-2h5.2c0,0,0-0.5,0-0.7c0-2-1.2-3.6-3.4-3.6--C160.1,123.2,158.5,124.8,158.5,127.1-M151.2,127.1c0-1.5,0.9-2.3,1.9-2.3c1.3,0,1.9,1.2,1.9,2.3c0,1.7-0.9,2.4-1.9,2.4--C151.9,129.5,151.2,128.6,151.2,127.1-M149.3,127.1c0,2.3,1.3,4,3.3,4c1.7,0,2.4-1.3,2.4-1.3h0c0,0,0,0.2,0,0.5v0.6h1.8v-10.5h-1.9--v3.3c0,0.2,0,0.4,0,0.4h0c0,0-0.5-1-2.2-1C150.7,123.2,149.3,124.7,149.3,127.1-M141.7,127.1c0-1.4,1-2.4,2.3-2.4--c1.2,0,2.2,1,2.2,2.4c0,1.4-1,2.4-2.2,2.4C142.7,129.5,141.7,128.5,141.7,127.1-M139.8,127.1c0,2.3,1.9,4,4.2,4c2.3,0,4.1-1.6,4.1-4--c0-2.3-1.9-4-4.2-4C141.6,123.2,139.8,124.8,139.8,127.1-M131.5,127.1c0,2.2,1.6,4,4.1,4c2,0,3.1-1.2,3.1-1.2l-0.7-1.3--c0,0-0.9,1-2.2,1c-1.4,0-2.4-1.1-2.4-2.4c0-1.3,0.9-2.3,2.3-2.3c1.2,0,2,0.8,2,0.8l0.8-1.3c0,0-0.9-1.1-2.9-1.1--C133.1,123.2,131.5,125,131.5,127.1-M126.1,130.9h1.9v-3c0-0.4,0-0.9,0.2-1.2c0.4-1.1,1.3-1.6,2.1-1.6c0.3,0,0.4,0,0.4,0v-1.9--c0,0-0.2,0-0.3,0c-1.2,0-2.1,0.9-2.4,1.9h0c0,0,0-0.3,0-0.5v-1.3h-1.8V130.9z-M119.2,126.2c0.2-1,0.8-1.6,1.8-1.6--c0.8,0,1.5,0.5,1.5,1.6H119.2z-M117.2,127.1c0,2.1,1.6,4,4.1,4c1.9,0,3-1.1,3-1.1l-0.7-1.3c0,0-1,0.8-2.2,0.8c-1.1,0-2.1-0.7-2.3-2--h5.2c0,0,0-0.5,0-0.7c0-2-1.2-3.6-3.4-3.6C118.8,123.2,117.2,124.8,117.2,127.1-M104,130.9h1.9v-3.3c0-0.3,0-0.7,0.1-1--c0.2-1,0.9-1.7,1.9-1.7c0.9,0,1,0.7,1,1.5v4.5h1.9v-3.3c0-0.4,0-0.7,0.1-1c0.2-0.9,0.9-1.7,1.8-1.7c0.9,0,1,0.7,1,1.5v4.5h1.9V126--c0-2-0.9-2.9-2.5-2.9c-1.2,0-2.2,0.7-2.6,1.6h0c-0.3-1-1.1-1.6-2.2-1.6c-1.2,0-2.1,0.8-2.5,1.6h0c0,0,0-0.2,0-0.5v-0.9H104V130.9z---M94.7,128.2c0,2.1,1,2.9,2.6,2.9c1.3,0,2.3-0.8,2.6-1.6h0c0,0,0,0.2,0,0.5v0.9h1.8v-7.6h-1.9v3.5c0,1.3-0.8,2.5-2.1,2.5--c-0.9,0-1.2-0.6-1.2-1.5v-4.5h-1.9V128.2z-M87.3,130c0,0,1.1,1.1,2.9,1.1c1.8,0,2.9-1,2.9-2.3c0-2.4-3.7-2.3-3.7-3.4--c0-0.5,0.5-0.7,1-0.7c1.2,0,1.9,0.7,1.9,0.7l0.7-1.4c0,0-0.8-0.9-2.5-0.9c-1.6,0-2.9,0.8-2.9,2.2c0,2.4,3.7,2.3,3.7,3.4--c0,0.4-0.5,0.7-1,0.7c-1.2,0-2.1-0.8-2.1-0.8L87.3,130z-M78.7,130.9h1.9v-3.5c0-0.4,0-0.7,0.1-1c0.3-0.9,1-1.5,2-1.5--c1,0,1.2,0.6,1.2,1.5v4.5h1.9V126c0-2-0.9-2.9-2.6-2.9c-1.5,0-2.4,0.9-2.7,1.6h0c0,0,0-0.2,0-0.5v-0.9h-1.8V130.9z-M70.6,127.1--c0-1.4,1-2.4,2.3-2.4c1.2,0,2.2,1,2.2,2.4c0,1.4-1,2.4-2.2,2.4C71.6,129.5,70.6,128.5,70.6,127.1-M68.7,127.1c0,2.3,1.9,4,4.2,4--c2.3,0,4.1-1.6,4.1-4c0-2.3-1.9-4-4.2-4C70.5,123.2,68.7,124.8,68.7,127.1-M60.4,127.1c0,2.2,1.6,4,4.1,4c2,0,3.1-1.2,3.1-1.2--l-0.7-1.3c0,0-0.9,1-2.2,1c-1.4,0-2.4-1.1-2.4-2.4c0-1.3,0.9-2.3,2.3-2.3c1.2,0,2,0.8,2,0.8l0.8-1.3c0,0-0.9-1.1-2.9-1.1--C62,123.2,60.4,125,60.4,127.1-M56.9,130.9h1.9V129h-1.9V130.9z-M46.3,130.9h2.1l1.3-4.3c0.1-0.4,0.2-0.8,0.2-0.8h0--c0,0,0.1,0.4,0.2,0.8l1.3,4.3h2.1l2.3-7.6h-2l-1.3,5c-0.1,0.4-0.2,0.8-0.2,0.8h0c0,0-0.1-0.4-0.2-0.8l-1.4-4.9H49l-1.4,4.9--c-0.1,0.4-0.2,0.8-0.2,0.8h0c0,0,0-0.4-0.1-0.8l-1.3-5h-2L46.3,130.9z-M33.9,130.9H36l1.3-4.3c0.1-0.4,0.2-0.8,0.2-0.8h0--c0,0,0.1,0.4,0.2,0.8l1.3,4.3h2.1l2.3-7.6h-2l-1.3,5c-0.1,0.4-0.2,0.8-0.2,0.8h0c0,0-0.1-0.4-0.2-0.8l-1.4-4.9h-1.7l-1.4,4.9--c-0.1,0.4-0.2,0.8-0.2,0.8h0c0,0,0-0.4-0.1-0.8l-1.3-5h-2L33.9,130.9z-M21.6,130.9h2.1l1.3-4.3c0.1-0.4,0.2-0.8,0.2-0.8h0--c0,0,0.1,0.4,0.2,0.8l1.3,4.3h2.1l2.3-7.6h-2l-1.3,5c-0.1,0.4-0.2,0.8-0.2,0.8h0c0,0-0.1-0.4-0.2-0.8l-1.4-4.9h-1.7l-1.4,4.9--c-0.1,0.4-0.2,0.8-0.2,0.8h0c0,0,0-0.4-0.1-0.8l-1.3-5h-2L21.6,130.9z&quot;/&gt;-&lt;rect-class=&quot;st2&quot;-width=&quot;228.6&quot;-height=&quot;109.7&quot;/&gt;-&lt;path-class=&quot;st1&quot;-d=&quot;M197.2,88.7c0,0,2,2.3,5.7,2.3c3.4,0,5.5-2.2,5.5-4.9c0-5.9-9-4.7-9-9c0-1.6,1.5-3.1,3.8-3.1--c2.4,0,3.9,1.5,3.9,1.5l0.9-1.5c0,0-1.7-1.7-4.8-1.7c-3.3,0-5.6,2.3-5.6,4.8c0,5.6,9,4.4,9,9c0,1.9-1.6,3.1-3.6,3.1--c-2.8,0-4.7-2-4.7-2L197.2,88.7z-M185.2,81.5v-7.2h3.6c1.4,0,2,0.2,2.6,0.4c1,0.6,1.6,1.7,1.6,3.1c0,2.3-1.4,3.7-3.6,3.7H185.2z---M183.4,90.7h1.8v-7.6h4.5l4.1,7.6h2l-3.9-7.2c-0.3-0.5-0.5-0.7-0.5-0.7v-0.1c2-0.6,3.4-2.4,3.4-4.9c0-2.2-1-3.9-2.7-4.6--c-0.7-0.3-1.5-0.5-3.4-0.5h-5.3V90.7z-M169.7,90.7h10.6v-1.6h-8.8v-6.7h6.8v-1.6h-6.8v-6.6h8.4v-1.6h-10.1V90.7z-M153.4,89.1V74.3--h3.9c4.4,0,7.4,2.6,7.4,7.4c0,4.8-2.9,7.4-7.4,7.4H153.4z-M151.6,90.7h5.8c5.4,0,9-3.3,9-9c0-5.7-3.6-9-9-9h-5.8V90.7z-M139.3,90.7--h10.1v-1.6H141V72.7h-1.8V90.7z-M133.2,90.7h1.8v-18h-1.8V90.7z-M115.3,84.4c0,4,2.8,6.6,6.9,6.6c4.1,0,6.9-2.6,6.9-6.6V72.7h-1.8--v11.6c0,3.1-2,5-5.1,5s-5.1-1.9-5.1-5V72.7h-1.8V84.4z-M102.2,89.1V82h4.6c2.1,0,3.6,1.4,3.6,3.6c0,2.1-1.4,3.5-3.5,3.5H102.2z---M102.2,80.5v-6.2h4.4c1.9,0,3.1,1.2,3.1,3.1c0,1.9-1.2,3.1-3,3.1H102.2z-M100.4,90.7h6.3c3,0,5.4-1.8,5.4-5c0-2.2-1.2-3.9-3-4.5--v-0.1c1.4-0.7,2.3-2,2.3-3.9c0-2.8-2-4.5-4.9-4.5h-6.1V90.7z-M81.4,90.7H92v-1.6h-8.8v-6.7H90v-1.6h-6.8v-6.6h8.4v-1.6H81.4V90.7z---M59.8,90.7h1.8l1-12.6c0.1-1,0.1-2.6,0.1-2.6h0.1c0,0,0.6,1.7,1,2.6l4.2,9.2h1.7l4.2-9.2c0.4-0.9,0.9-2.5,0.9-2.5h0.1--c0,0,0,1.5,0.1,2.5l1,12.6h1.8l-1.4-18h-1.8l-4.7,10.6c-0.4,0.9-0.9,2.2-0.9,2.2h-0.1c0,0-0.5-1.3-0.9-2.2l-4.7-10.6h-1.8L59.8,90.7--z-M40.8,81.6c0-4.3,3.2-7.6,7.3-7.6c4,0,7.3,3.3,7.3,7.6c0,4.4-3.3,7.8-7.3,7.8C44.1,89.4,40.8,86,40.8,81.6-M39,81.6--c0,5.3,4.1,9.4,9.2,9.4s9.2-4.1,9.2-9.4c0-5.2-4.1-9.2-9.2-9.2S39,76.4,39,81.6-M21.9,90.7h1.8v-8.2h10.4v8.2h1.8v-18h-1.8v8.2H23.7--v-8.2h-1.8V90.7z&quot;/&gt;-&lt;path-class=&quot;st1&quot;-d=&quot;M131.9,55.2V48h3.6c1.4,0,2,0.2,2.6,0.4c1,0.6,1.6,1.7,1.6,3.1c0,2.3-1.4,3.7-3.6,3.7H131.9z-M130.2,64.4h1.8--v-7.6h4.5l4.1,7.6h2l-3.9-7.2c-0.3-0.5-0.5-0.7-0.5-0.7v-0.1c2-0.6,3.4-2.4,3.4-4.9c0-2.2-1-3.9-2.7-4.6c-0.7-0.3-1.5-0.5-3.4-0.5--h-5.3V64.4z-M110.6,55.3c0-4.3,3.3-7.6,7.3-7.6c4,0,7.3,3.3,7.3,7.6c0,4.4-3.3,7.8-7.3,7.8C113.8,63,110.6,59.7,110.6,55.3---M108.7,55.3c0,5.3,4.1,9.4,9.2,9.4s9.2-4.1,9.2-9.4c0-5.2-4.1-9.2-9.2-9.2S108.7,50.1,108.7,55.3-M97.7,64.4h1.8v-8.1h6.6v-1.6--h-6.6V48h7.7v-1.6h-9.5V64.4z&quot;/&gt;-&lt;path-class=&quot;st0&quot;-d=&quot;M77.1,64.4h11.8v-3.8h-7.3v-3.5h5.6v-3.8h-5.6v-3.3h7v-3.8H77.1V64.4z-M63.4,60.5V49.9h1.8c3,0,5,1.8,5,5.3--c0,3.5-1.9,5.4-5,5.4H63.4z-M58.9,64.4h6.5c5.8,0,9.4-3.4,9.4-9.2c0-5.8-3.7-9.1-9.4-9.1h-6.5V64.4z-M42.3,55.1c0-3,2.2-5.2,4.9-5.2--c2.7,0,4.9,2.3,4.9,5.2c0,3.1-2.2,5.5-4.9,5.5C44.5,60.6,42.3,58.2,42.3,55.1-M37.6,55.1c0,5.4,4,9.6,9.6,9.6c5.5,0,9.6-4.2,9.6-9.6--c0-5.2-4-9.3-9.6-9.3C41.7,45.8,37.6,49.9,37.6,55.1-M20.2,55.2c0,5.4,3.9,9.5,9.6,9.5c4.8,0,7.4-3.1,7.4-3.1l-2.3-3.3--c0,0-2.1,2.3-4.9,2.3c-3.4,0-5.2-2.8-5.2-5.5c0-2.6,1.7-5.2,5.2-5.2c2.5,0,4.6,1.9,4.6,1.9l2.1-3.4c0,0-2.3-2.6-6.9-2.6--C24.3,45.8,20.2,49.9,20.2,55.2&quot;/&gt;-&lt;path-class=&quot;st0&quot;-d=&quot;M150.8,27.8v-4.5h1.5c2.3,0,2.8,0.8,2.8,2.2c0,1.5-0.9,2.3-2.3,2.3H150.8z-M146.3,37.8h4.5v-6.2h2.1l3.3,6.2h5--l-3.6-6.4c-0.4-0.8-0.7-1.1-0.7-1.1v-0.1c1.8-0.9,2.7-3,2.7-5c0-2.7-1.3-4.5-3.4-5.3c-0.8-0.3-1.7-0.4-3.6-0.4h-6.4V37.8z---M132.1,37.8H144V34h-7.3v-3.5h5.6v-3.8h-5.6v-3.3h7v-3.8h-11.5V37.8z-M109.4,37.8h4.5l0.6-8.2c0.1-1.4,0-3.1,0-3.1h0.1--c0,0,0.6,1.9,1,3.1l1.9,5.3h3.8l1.9-5.3c0.4-1.2,1-3.1,1-3.1h0.1c0,0-0.1,1.7,0,3.1l0.6,8.2h4.5l-1.5-18.3h-4.9l-2.7,7.7--c-0.4,1.2-0.9,3-0.9,3h-0.1c0,0-0.5-1.8-0.9-3l-2.7-7.7h-4.9L109.4,37.8z-M91.5,31.1c0,4.1,3,7,7.7,7c4.6,0,7.6-2.9,7.6-7V19.5h-4.5--v11.6c0,1.9-1.3,2.9-3.2,2.9c-1.9,0-3.2-1-3.2-2.9V19.5h-4.5V31.1z-M76.4,35.5c0,0,2.4,2.6,6.7,2.6c4.1,0,6.4-2.6,6.4-5.7--c0-5.8-8.2-5.4-8.2-7.7c0-1,1-1.4,1.9-1.4c2.2,0,4,1.6,4,1.6l1.9-3.7c0,0-1.9-2.1-5.9-2.1c-3.6,0-6.5,2.2-6.5,5.6--c0,5.6,8.2,5.6,8.2,7.7c0,1.1-1,1.5-1.9,1.5c-2.3,0-4.4-1.9-4.4-1.9L76.4,35.5z-M58.9,37.8h4.5v-8.5c0-1.2-0.2-3.1-0.2-3.1h0.1--c0,0,0.8,1.9,1.5,3.1l5.1,8.5h4.5V19.5h-4.5v8.5c0,1.2,0.2,3.1,0.2,3.1h-0.1c0,0-0.8-1.9-1.5-3.1l-5.1-8.5h-4.5V37.8z-M42.3,28.6--c0-3,2.2-5.2,4.9-5.2c2.7,0,4.9,2.3,4.9,5.2c0,3.1-2.2,5.5-4.9,5.5C44.5,34,42.3,31.7,42.3,28.6-M37.6,28.6c0,5.4,4,9.6,9.6,9.6--c5.5,0,9.6-4.2,9.6-9.6c0-5.2-4-9.3-9.6-9.3C41.7,19.2,37.6,23.3,37.6,28.6-M20.2,28.6c0,5.4,3.9,9.5,9.6,9.5c4.8,0,7.4-3.1,7.4-3.1--l-2.3-3.3c0,0-2.1,2.3-4.9,2.3c-3.4,0-5.2-2.8-5.2-5.5c0-2.6,1.7-5.2,5.2-5.2c2.5,0,4.6,1.9,4.6,1.9l2.1-3.4c0,0-2.3-2.6-6.9-2.6--C24.3,19.2,20.2,23.3,20.2,28.6&quot;/&gt;-&lt;/svg&gt;-" transform="translate(-523.000000, -354.000000)">
            <g id="Group-11" transform="translate(523.000000, 353.000000)">
                <polygon id="Fill-1" fill="#782F40" points="0 142.727 228.595 142.727 228.595 110.725 0 110.725"></polygon>
                <g id="Group-10" transform="translate(0.000000, 0.727000)">
                    <path d="M21.6009,131.1714 L23.7059,131.1714 L24.9809,126.8594 C25.0989,126.4584 25.1569,126.0454 25.1569,126.0454 L25.1879,126.0454 C25.1879,126.0454 25.2609,126.4584 25.3799,126.8594 L26.6549,131.1714 L28.7439,131.1714 L31.0409,123.6134 L29.0839,123.6134 L27.7669,128.5774 C27.6629,128.9784 27.6039,129.3774 27.6039,129.3774 L27.5729,129.3774 C27.5729,129.3774 27.5149,128.9784 27.4109,128.5774 L26.0169,123.6284 L24.3439,123.6284 L22.9499,128.5774 C22.8459,128.9784 22.7719,129.3774 22.7719,129.3774 L22.7429,129.3774 C22.7429,129.3774 22.6979,128.9784 22.5939,128.5774 L21.2749,123.6134 L19.2889,123.6134 L21.6009,131.1714 Z M33.9459,131.1714 L36.0499,131.1714 L37.3259,126.8594 C37.4429,126.4584 37.5019,126.0454 37.5019,126.0454 L37.5329,126.0454 C37.5329,126.0454 37.6069,126.4584 37.7249,126.8594 L38.9989,131.1714 L41.0889,131.1714 L43.3859,123.6134 L41.4289,123.6134 L40.1109,128.5774 C40.0079,128.9784 39.9489,129.3774 39.9489,129.3774 L39.9179,129.3774 C39.9179,129.3774 39.8589,128.9784 39.7559,128.5774 L38.3619,123.6284 L36.6879,123.6284 L35.2949,128.5774 C35.1909,128.9784 35.1169,129.3774 35.1169,129.3774 L35.0869,129.3774 C35.0869,129.3774 35.0419,128.9784 34.9389,128.5774 L33.6199,123.6134 L31.6339,123.6134 L33.9459,131.1714 Z M46.2909,131.1714 L48.3939,131.1714 L49.6699,126.8594 C49.7879,126.4584 49.8469,126.0454 49.8469,126.0454 L49.8779,126.0454 C49.8779,126.0454 49.9519,126.4584 50.0699,126.8594 L51.3439,131.1714 L53.4339,131.1714 L55.7309,123.6134 L53.7739,123.6134 L52.4559,128.5774 C52.3519,128.9784 52.2919,129.3774 52.2919,129.3774 L52.2629,129.3774 C52.2629,129.3774 52.2039,128.9784 52.1009,128.5774 L50.7069,123.6284 L49.0329,123.6284 L47.6399,128.5774 C47.5359,128.9784 47.4619,129.3774 47.4619,129.3774 L47.4319,129.3774 C47.4319,129.3774 47.3879,128.9784 47.2839,128.5774 L45.9639,123.6134 L43.9779,123.6134 L46.2909,131.1714 Z M56.9019,131.1714 L58.7839,131.1714 L58.7839,129.2894 L56.9019,129.2894 L56.9019,131.1714 Z M60.4139,127.3924 C60.4139,129.5864 62.0149,131.3494 64.5179,131.3494 C66.5489,131.3494 67.6299,130.1194 67.6299,130.1194 L66.9049,128.7854 C66.9049,128.7854 65.9559,129.7484 64.6819,129.7484 C63.2449,129.7484 62.3249,128.6514 62.3249,127.3794 C62.3249,126.0884 63.2289,125.0374 64.6229,125.0374 C65.8079,125.0374 66.5939,125.8524 66.5939,125.8524 L67.4229,124.5624 C67.4229,124.5624 66.4899,123.4364 64.5179,123.4364 C62.0149,123.4364 60.4139,125.2424 60.4139,127.3924 L60.4139,127.3924 Z M68.6529,127.3924 C68.6529,129.7194 70.5059,131.3494 72.8179,131.3494 C75.1149,131.3494 76.9679,129.7194 76.9679,127.3924 C76.9679,125.0804 75.1149,123.4364 72.8029,123.4364 C70.5059,123.4364 68.6529,125.0804 68.6529,127.3924 L68.6529,127.3924 Z M70.5659,127.3924 C70.5659,125.9994 71.5879,125.0374 72.8179,125.0374 C74.0319,125.0374 75.0559,125.9994 75.0559,127.3924 C75.0559,128.8014 74.0319,129.7484 72.8179,129.7484 C71.5879,129.7484 70.5659,128.8014 70.5659,127.3924 L70.5659,127.3924 Z M78.6569,131.1714 L80.5389,131.1714 L80.5389,127.7034 C80.5389,127.3484 80.5689,127.0074 80.6729,126.6954 C80.9539,125.7924 81.6949,125.1544 82.7039,125.1544 C83.6649,125.1544 83.9019,125.7774 83.9019,126.6954 L83.9019,131.1714 L85.7709,131.1714 L85.7709,126.3104 C85.7709,124.3104 84.8229,123.4364 83.1469,123.4364 C81.6209,123.4364 80.7909,124.3684 80.4649,125.0064 L80.4359,125.0064 C80.4359,125.0064 80.4649,124.7694 80.4649,124.4874 L80.4649,123.6134 L78.6569,123.6134 L78.6569,131.1714 Z M87.2819,130.2374 C87.2819,130.2374 88.3339,131.3494 90.2159,131.3494 C92.0089,131.3494 93.1049,130.3424 93.1049,129.0824 C93.1049,126.6514 89.4309,126.7844 89.4309,125.7174 C89.4309,125.2424 89.9049,125.0374 90.3939,125.0374 C91.5499,125.0374 92.2459,125.6884 92.2459,125.6884 L92.9429,124.2964 C92.9429,124.2964 92.1129,123.4364 90.4079,123.4364 C88.7789,123.4364 87.5179,124.2514 87.5179,125.6584 C87.5179,128.0884 91.1939,127.9404 91.1939,129.0674 C91.1939,129.5114 90.7339,129.7484 90.2009,129.7484 C88.9709,129.7484 88.1419,128.9194 88.1419,128.9194 L87.2819,130.2374 Z M94.6909,128.4744 C94.6909,130.5344 95.6999,131.3494 97.3139,131.3494 C98.6039,131.3494 99.5659,130.5634 99.9379,129.7794 L99.9669,129.7794 C99.9669,129.7794 99.9379,130.0164 99.9379,130.3134 L99.9379,131.1714 L101.7459,131.1714 L101.7459,123.6134 L99.8639,123.6134 L99.8639,127.0824 C99.8639,128.4304 99.1079,129.6304 97.7449,129.6304 C96.8099,129.6304 96.5739,129.0074 96.5739,128.0884 L96.5739,123.6134 L94.6909,123.6134 L94.6909,128.4744 Z M103.9979,131.1714 L105.8799,131.1714 L105.8799,127.8524 C105.8799,127.5114 105.8959,127.1704 105.9699,126.8884 C106.2069,125.9264 106.8439,125.1544 107.8219,125.1544 C108.7109,125.1544 108.8439,125.8524 108.8439,126.6664 L108.8439,131.1714 L110.7269,131.1714 L110.7269,127.8524 C110.7269,127.4964 110.7409,127.1704 110.8149,126.8744 C111.0379,125.9264 111.6749,125.1544 112.6379,125.1544 C113.5119,125.1544 113.6759,125.8074 113.6759,126.6664 L113.6759,131.1714 L115.5589,131.1714 L115.5589,126.3104 C115.5589,124.3254 114.6539,123.4364 113.0819,123.4364 C111.8969,123.4364 110.9199,124.1764 110.5039,124.9924 L110.4749,124.9924 C110.1639,123.9694 109.4219,123.4364 108.2659,123.4364 C107.0809,123.4364 106.1759,124.2664 105.8059,125.0064 L105.7769,125.0064 C105.7769,125.0064 105.8059,124.7694 105.8059,124.4874 L105.8059,123.6134 L103.9979,123.6134 L103.9979,131.1714 Z M117.1729,127.3924 C117.1729,129.5414 118.7289,131.3494 121.2339,131.3494 C123.1159,131.3494 124.2709,130.2684 124.2709,130.2684 L123.5459,128.9194 C123.5459,128.9194 122.5819,129.7484 121.3669,129.7484 C120.2409,129.7484 119.2179,129.0674 119.0989,127.7484 L124.3159,127.7484 C124.3159,127.7484 124.3609,127.2444 124.3609,127.0214 C124.3609,125.0214 123.1899,123.4364 121.0109,123.4364 C118.7589,123.4364 117.1729,125.0664 117.1729,127.3924 L117.1729,127.3924 Z M119.1579,126.4584 C119.3369,125.4814 120.0039,124.8884 120.9659,124.8884 C121.7969,124.8884 122.4339,125.4364 122.4629,126.4584 L119.1579,126.4584 Z M126.0939,131.1714 L127.9759,131.1714 L127.9759,128.1784 C127.9759,127.7334 128.0209,127.3184 128.1389,126.9484 C128.4949,125.8214 129.3989,125.3614 130.1989,125.3614 C130.4509,125.3614 130.6439,125.3914 130.6439,125.3914 L130.6439,123.5394 C130.6439,123.5394 130.4799,123.5104 130.3029,123.5104 C129.1469,123.5104 128.2439,124.3684 127.9019,125.4514 L127.8719,125.4514 C127.8719,125.4514 127.9019,125.1994 127.9019,124.9184 L127.9019,123.6134 L126.0939,123.6134 L126.0939,131.1714 Z M131.5479,127.3924 C131.5479,129.5864 133.1479,131.3494 135.6529,131.3494 C137.6839,131.3494 138.7649,130.1194 138.7649,130.1194 L138.0389,128.7854 C138.0389,128.7854 137.0899,129.7484 135.8149,129.7484 C134.3779,129.7484 133.4589,128.6514 133.4589,127.3794 C133.4589,126.0884 134.3639,125.0374 135.7559,125.0374 C136.9429,125.0374 137.7269,125.8524 137.7269,125.8524 L138.5579,124.5624 C138.5579,124.5624 137.6229,123.4364 135.6529,123.4364 C133.1479,123.4364 131.5479,125.2424 131.5479,127.3924 L131.5479,127.3924 Z M139.7879,127.3924 C139.7879,129.7194 141.6409,131.3494 143.9509,131.3494 C146.2499,131.3494 148.1009,129.7194 148.1009,127.3924 C148.1009,125.0804 146.2499,123.4364 143.9369,123.4364 C141.6409,123.4364 139.7879,125.0804 139.7879,127.3924 L139.7879,127.3924 Z M141.6989,127.3924 C141.6989,125.9994 142.7219,125.0374 143.9509,125.0374 C145.1669,125.0374 146.1889,125.9994 146.1889,127.3924 C146.1889,128.8014 145.1669,129.7484 143.9509,129.7484 C142.7219,129.7484 141.6989,128.8014 141.6989,127.3924 L141.6989,127.3924 Z M149.2719,127.3924 C149.2719,129.7334 150.5759,131.3494 152.6209,131.3494 C154.3549,131.3494 154.9919,130.0614 154.9919,130.0614 L155.0209,130.0614 C155.0209,130.0614 154.9919,130.2684 154.9919,130.5494 L154.9919,131.1714 L156.7709,131.1714 L156.7709,120.6494 L154.8889,120.6494 L154.8889,123.9694 C154.8889,124.2064 154.9039,124.4004 154.9039,124.4004 L154.8739,124.4004 C154.8739,124.4004 154.3549,123.4364 152.6949,123.4364 C150.6949,123.4364 149.2719,124.9924 149.2719,127.3924 L149.2719,127.3924 Z M151.1679,127.3924 C151.1679,125.8954 152.0289,125.0504 153.0659,125.0504 C154.3259,125.0504 154.9489,126.2084 154.9489,127.3794 C154.9489,129.0524 154.0299,129.7644 153.0509,129.7644 C151.9389,129.7644 151.1679,128.8294 151.1679,127.3924 L151.1679,127.3924 Z M158.4899,127.3924 C158.4899,129.5414 160.0449,131.3494 162.5499,131.3494 C164.4319,131.3494 165.5879,130.2684 165.5879,130.2684 L164.8619,128.9194 C164.8619,128.9194 163.8979,129.7484 162.6839,129.7484 C161.5579,129.7484 160.5359,129.0674 160.4169,127.7484 L165.6339,127.7484 C165.6339,127.7484 165.6769,127.2444 165.6769,127.0214 C165.6769,125.0214 164.5059,123.4364 162.3269,123.4364 C160.0749,123.4364 158.4899,125.0664 158.4899,127.3924 L158.4899,127.3924 Z M160.4759,126.4584 C160.6529,125.4814 161.3199,124.8884 162.2839,124.8884 C163.1129,124.8884 163.7509,125.4364 163.7799,126.4584 L160.4759,126.4584 Z M167.3369,131.1714 L169.2199,131.1714 L169.2199,129.2894 L167.3369,129.2894 L167.3369,131.1714 Z M170.8499,127.3924 C170.8499,129.5864 172.4489,131.3494 174.9539,131.3494 C176.9839,131.3494 178.0649,130.1194 178.0649,130.1194 L177.3399,128.7854 C177.3399,128.7854 176.3919,129.7484 175.1169,129.7484 C173.6799,129.7484 172.7599,128.6514 172.7599,127.3794 C172.7599,126.0884 173.6649,125.0374 175.0589,125.0374 C176.2439,125.0374 177.0289,125.8524 177.0289,125.8524 L177.8579,124.5624 C177.8579,124.5624 176.9259,123.4364 174.9539,123.4364 C172.4489,123.4364 170.8499,125.2424 170.8499,127.3924 L170.8499,127.3924 Z M179.0879,127.3924 C179.0879,129.7194 180.9409,131.3494 183.2529,131.3494 C185.5499,131.3494 187.4029,129.7194 187.4029,127.3924 C187.4029,125.0804 185.5499,123.4364 183.2379,123.4364 C180.9409,123.4364 179.0879,125.0804 179.0879,127.3924 L179.0879,127.3924 Z M181.0009,127.3924 C181.0009,125.9994 182.0239,125.0374 183.2529,125.0374 C184.4689,125.0374 185.4919,125.9994 185.4919,127.3924 C185.4919,128.8014 184.4689,129.7484 183.2529,129.7484 C182.0239,129.7484 181.0009,128.8014 181.0009,127.3924 L181.0009,127.3924 Z M189.0179,131.1714 L190.9009,131.1714 L190.9009,129.2894 L189.0179,129.2894 L189.0179,131.1714 Z M192.9749,128.4744 C192.9749,130.5344 193.9829,131.3494 195.5979,131.3494 C196.8879,131.3494 197.8509,130.5634 198.2219,129.7794 L198.2509,129.7794 C198.2509,129.7794 198.2219,130.0164 198.2219,130.3134 L198.2219,131.1714 L200.0299,131.1714 L200.0299,123.6134 L198.1469,123.6134 L198.1469,127.0824 C198.1469,128.4304 197.3909,129.6304 196.0279,129.6304 C195.0939,129.6304 194.8569,129.0074 194.8569,128.0884 L194.8569,123.6134 L192.9749,123.6134 L192.9749,128.4744 Z M202.2819,131.1714 L204.1639,131.1714 L204.1639,127.8664 L205.1419,127.8664 L207.1419,131.1714 L209.3059,131.1714 L206.6229,127.0214 L206.6229,126.9924 L209.0099,123.6134 L206.9199,123.6134 L205.0969,126.2824 L204.1639,126.2824 L204.1639,120.6494 L202.2819,120.6494 L202.2819,131.1714 Z" id="Fill-2" fill="#FFFFFF"></path>
                    <mask id="mask-2" fill="white">
                        <use xlink:href="#path-1"></use>
                    </mask>
                    <g id="Clip-5"></g>
                    <polygon id="Fill-4" fill="#ACA39A" mask="url(#mask-2)" points="0 109.998 228.595 109.998 228.595 0.273 0 0.273"></polygon>
                    <path d="M21.911,90.9722 L23.677,90.9722 L23.677,82.7572 L34.119,82.7572 L34.119,90.9722 L35.885,90.9722 L35.885,72.9802 L34.119,72.9802 L34.119,81.1702 L23.677,81.1702 L23.677,72.9802 L21.911,72.9802 L21.911,90.9722 Z M38.981,81.8612 C38.981,87.1332 43.052,91.2792 48.144,91.2792 C53.237,91.2792 57.306,87.1332 57.306,81.8612 C57.306,76.6912 53.237,72.6752 48.144,72.6752 C43.052,72.6752 38.981,76.6912 38.981,81.8612 L38.981,81.8612 Z M40.825,81.8612 C40.825,77.5612 44.074,74.3102 48.144,74.3102 C52.188,74.3102 55.462,77.5612 55.462,81.8612 C55.462,86.2632 52.188,89.6432 48.144,89.6432 C44.074,89.6432 40.825,86.2632 40.825,81.8612 L40.825,81.8612 Z M59.839,90.9722 L61.605,90.9722 L62.602,78.3812 C62.68,77.4092 62.654,75.8222 62.654,75.8222 L62.704,75.8222 C62.704,75.8222 63.268,77.4842 63.678,78.3812 L67.901,87.6202 L69.563,87.6202 L73.787,78.3812 C74.197,77.4592 74.734,75.8722 74.734,75.8722 L74.785,75.8722 C74.785,75.8722 74.76,77.4092 74.837,78.3812 L75.835,90.9722 L77.6,90.9722 L76.167,72.9802 L74.35,72.9802 L69.642,83.5502 C69.231,84.4722 68.745,85.7502 68.745,85.7502 L68.694,85.7502 C68.694,85.7502 68.233,84.4722 67.824,83.5502 L63.115,72.9802 L61.272,72.9802 L59.839,90.9722 Z M81.362,90.9722 L91.957,90.9722 L91.957,89.3852 L83.128,89.3852 L83.128,82.7052 L89.962,82.7052 L89.962,81.1182 L83.128,81.1182 L83.128,74.5672 L91.496,74.5672 L91.496,72.9802 L81.362,72.9802 L81.362,90.9722 Z M100.426,90.9722 L106.771,90.9722 C109.793,90.9722 112.172,89.1292 112.172,85.9302 C112.172,83.7562 110.995,81.9892 109.151,81.4772 L109.151,81.4262 C110.534,80.7362 111.43,79.3792 111.43,77.5112 C111.43,74.6942 109.409,72.9802 106.567,72.9802 L100.426,72.9802 L100.426,90.9722 Z M102.19,80.7852 L102.19,74.5672 L106.542,74.5672 C108.462,74.5672 109.613,75.7962 109.613,77.6382 C109.613,79.5072 108.384,80.7852 106.567,80.7852 L102.19,80.7852 Z M102.19,89.3852 L102.19,82.3222 L106.771,82.3222 C108.871,82.3222 110.329,83.7292 110.329,85.8812 C110.329,88.0292 108.974,89.3852 106.798,89.3852 L102.19,89.3852 Z M115.319,84.7032 C115.319,88.6962 118.135,91.2792 122.23,91.2792 C126.299,91.2792 129.089,88.6962 129.089,84.7032 L129.089,72.9802 L127.323,72.9802 L127.323,84.6262 C127.323,87.7732 125.3,89.6432 122.203,89.6432 C119.107,89.6432 117.111,87.7732 117.111,84.6762 L117.111,72.9802 L115.319,72.9802 L115.319,84.7032 Z M133.184,90.9722 L134.95,90.9722 L134.95,72.9802 L133.184,72.9802 L133.184,90.9722 Z M139.275,90.9722 L149.383,90.9722 L149.383,89.3852 L141.04,89.3852 L141.04,72.9802 L139.275,72.9802 L139.275,90.9722 Z M151.635,90.9722 L157.445,90.9722 C162.844,90.9722 166.479,87.6962 166.479,81.9632 C166.479,76.2832 162.844,72.9802 157.445,72.9802 L151.635,72.9802 L151.635,90.9722 Z M153.402,89.3852 L153.402,74.5672 L157.265,74.5672 C161.668,74.5672 164.636,77.1792 164.636,81.9632 C164.636,86.7742 161.693,89.3852 157.265,89.3852 L153.402,89.3852 Z M169.678,90.9722 L180.273,90.9722 L180.273,89.3852 L171.444,89.3852 L171.444,82.7052 L178.277,82.7052 L178.277,81.1182 L171.444,81.1182 L171.444,74.5672 L179.812,74.5672 L179.812,72.9802 L169.678,72.9802 L169.678,90.9722 Z M183.395,90.9722 L185.161,90.9722 L185.161,83.3962 L189.691,83.3962 L193.761,90.9722 L195.782,90.9722 L191.868,83.7292 C191.586,83.2432 191.405,83.0122 191.405,83.0122 L191.405,82.9622 C193.428,82.3992 194.81,80.5312 194.81,78.0992 C194.81,75.9232 193.786,74.2082 192.097,73.4672 C191.38,73.1592 190.56,72.9802 188.719,72.9802 L183.395,72.9802 L183.395,90.9722 Z M185.161,81.8102 L185.161,74.5672 L188.794,74.5672 C190.177,74.5672 190.817,74.7212 191.355,75.0022 C192.404,75.5652 192.992,76.6662 192.992,78.1512 C192.992,80.4032 191.611,81.8102 189.436,81.8102 L185.161,81.8102 Z M197.242,88.9762 C197.242,88.9762 199.263,91.2792 202.948,91.2792 C206.326,91.2792 208.4,89.1052 208.4,86.4172 C208.4,80.5052 199.416,81.7322 199.416,77.4592 C199.416,75.8722 200.901,74.3622 203.204,74.3622 C205.558,74.3622 207.145,75.8992 207.145,75.8992 L208.015,74.4142 C208.015,74.4142 206.326,72.6752 203.204,72.6752 C199.877,72.6752 197.598,74.9272 197.598,77.5112 C197.598,83.0892 206.582,81.9382 206.582,86.4682 C206.582,88.4112 204.97,89.5902 202.999,89.5902 C200.159,89.5902 198.29,87.6202 198.29,87.6202 L197.242,88.9762 Z" id="Fill-6" fill="#FFFFFF" mask="url(#mask-2)"></path>
                    <path d="M97.7152,64.6426 L99.4812,64.6426 L99.4812,56.5806 L106.0842,56.5806 L106.0842,54.9936 L99.4812,54.9936 L99.4812,48.2376 L107.1852,48.2376 L107.1852,46.6506 L97.7152,46.6506 L97.7152,64.6426 Z M108.7462,55.5316 C108.7462,60.8036 112.8152,64.9496 117.9072,64.9496 C123.0002,64.9496 127.0692,60.8036 127.0692,55.5316 C127.0692,50.3616 123.0002,46.3436 117.9072,46.3436 C112.8152,46.3436 108.7462,50.3616 108.7462,55.5316 L108.7462,55.5316 Z M110.5882,55.5316 C110.5882,51.2316 113.8392,47.9806 117.9072,47.9806 C121.9512,47.9806 125.2272,51.2316 125.2272,55.5316 C125.2272,59.9336 121.9512,63.3116 117.9072,63.3116 C113.8392,63.3116 110.5882,59.9336 110.5882,55.5316 L110.5882,55.5316 Z M130.1662,64.6426 L131.9322,64.6426 L131.9322,57.0666 L136.4612,57.0666 L140.5312,64.6426 L142.5522,64.6426 L138.6382,57.3996 C138.3552,56.9136 138.1772,56.6826 138.1772,56.6826 L138.1772,56.6326 C140.1982,56.0696 141.5802,54.2016 141.5802,51.7696 C141.5802,49.5936 140.5562,47.8786 138.8672,47.1376 C138.1522,46.8296 137.3322,46.6506 135.4892,46.6506 L130.1662,46.6506 L130.1662,64.6426 Z M131.9322,55.4806 L131.9322,48.2376 L135.5662,48.2376 C136.9482,48.2376 137.5872,48.3916 138.1252,48.6726 C139.1742,49.2356 139.7642,50.3366 139.7642,51.8196 C139.7642,54.0726 138.3812,55.4806 136.2062,55.4806 L131.9322,55.4806 Z" id="Fill-7" fill="#FFFFFF" mask="url(#mask-2)"></path>
                    <path d="M20.1961,55.4542 C20.1961,60.8802 24.0601,64.9492 29.7931,64.9492 C34.5791,64.9492 37.1641,61.8792 37.1641,61.8792 L34.8601,58.6012 C34.8601,58.6012 32.7621,60.8532 29.9991,60.8532 C26.6201,60.8532 24.8281,58.0652 24.8281,55.3522 C24.8281,52.7162 26.4911,50.1302 29.9991,50.1302 C32.5321,50.1302 34.5791,52.0002 34.5791,52.0002 L36.6521,48.6212 C36.6521,48.6212 34.3241,46.0352 29.7931,46.0352 C24.2911,46.0352 20.1961,50.1302 20.1961,55.4542 L20.1961,55.4542 Z M37.6251,55.3772 C37.6251,60.7512 41.6691,64.9492 47.1961,64.9492 C52.7251,64.9492 56.7681,60.7512 56.7681,55.3772 C56.7681,50.1302 52.7251,46.0352 47.1961,46.0352 C41.6691,46.0352 37.6251,50.1302 37.6251,55.3772 L37.6251,55.3772 Z M42.2571,55.3772 C42.2571,52.3832 44.4571,50.1302 47.1961,50.1302 C49.9331,50.1302 52.1351,52.3832 52.1351,55.3772 C52.1351,58.5002 49.9331,60.8532 47.1961,60.8532 C44.4571,60.8532 42.2571,58.5002 42.2571,55.3772 L42.2571,55.3772 Z M58.9171,64.6422 L65.4171,64.6422 C71.1761,64.6422 74.8611,61.2132 74.8611,55.4542 C74.8611,49.6952 71.1761,46.3432 65.4171,46.3432 L58.9171,46.3432 L58.9171,64.6422 Z M63.3961,60.8052 L63.3961,50.1832 L65.2391,50.1832 C68.2591,50.1832 70.2291,51.9752 70.2291,55.4542 C70.2291,58.9612 68.3361,60.8052 65.2391,60.8052 L63.3961,60.8052 Z M77.1131,64.6422 L88.9371,64.6422 L88.9371,60.8052 L81.5921,60.8052 L81.5921,57.3492 L87.1711,57.3492 L87.1711,53.5092 L81.5921,53.5092 L81.5921,50.1832 L88.5781,50.1832 L88.5781,46.3432 L77.1131,46.3432 L77.1131,64.6422 Z" id="Fill-8" fill="#782F40" mask="url(#mask-2)"></path>
                    <path d="M20.1961,28.9146 C20.1961,34.3406 24.0601,38.4096 29.7931,38.4096 C34.5791,38.4096 37.1641,35.3386 37.1641,35.3386 L34.8601,32.0616 C34.8601,32.0616 32.7621,34.3136 29.9991,34.3136 C26.6201,34.3136 24.8281,31.5236 24.8281,28.8126 C24.8281,26.1766 26.4911,23.5906 29.9991,23.5906 C32.5321,23.5906 34.5791,25.4596 34.5791,25.4596 L36.6521,22.0816 C36.6521,22.0816 34.3241,19.4956 29.7931,19.4956 C24.2911,19.4956 20.1961,23.5906 20.1961,28.9146 L20.1961,28.9146 Z M37.6251,28.8376 C37.6251,34.2116 41.6691,38.4096 47.1961,38.4096 C52.7251,38.4096 56.7681,34.2116 56.7681,28.8376 C56.7681,23.5906 52.7251,19.4956 47.1961,19.4956 C41.6691,19.4956 37.6251,23.5906 37.6251,28.8376 L37.6251,28.8376 Z M42.2571,28.8376 C42.2571,25.8436 44.4571,23.5906 47.1961,23.5906 C49.9331,23.5906 52.1351,25.8436 52.1351,28.8376 C52.1351,31.9596 49.9331,34.3136 47.1961,34.3136 C44.4571,34.3136 42.2571,31.9596 42.2571,28.8376 L42.2571,28.8376 Z M58.9171,38.1026 L63.3961,38.1026 L63.3961,29.5786 C63.3961,28.4276 63.1921,26.4576 63.1921,26.4576 L63.2431,26.4576 C63.2431,26.4576 64.0611,28.3776 64.7781,29.5786 L69.8711,38.1026 L74.3751,38.1026 L74.3751,19.8036 L69.8961,19.8036 L69.8961,28.3516 C69.8961,29.5026 70.1021,31.4746 70.1021,31.4746 L70.0501,31.4746 C70.0501,31.4746 69.2311,29.5546 68.5141,28.3516 L63.4471,19.8036 L58.9171,19.8036 L58.9171,38.1026 Z M76.4231,35.7986 C76.4231,35.7986 78.8021,38.4096 83.1021,38.4096 C87.2211,38.4096 89.5511,35.7736 89.5511,32.7286 C89.5511,26.9436 81.3111,27.3526 81.3111,25.0506 C81.3111,24.0266 82.3351,23.6176 83.2551,23.6176 C85.4571,23.6176 87.3001,25.2296 87.3001,25.2296 L89.1941,21.5696 C89.1941,21.5696 87.2481,19.4956 83.3071,19.4956 C79.6721,19.4956 76.8321,21.7226 76.8321,25.1006 C76.8321,30.7306 85.0731,30.6546 85.0731,32.8296 C85.0731,33.9306 84.0741,34.2886 83.1541,34.2886 C80.8501,34.2886 78.7771,32.3936 78.7771,32.3936 L76.4231,35.7986 Z M91.4711,31.3716 C91.4711,35.4906 94.4901,38.4096 99.1491,38.4096 C103.7541,38.4096 106.7751,35.4906 106.7751,31.3716 L106.7751,19.8036 L102.2961,19.8036 L102.2961,31.3716 C102.2961,33.2916 101.0421,34.3136 99.1221,34.3136 C97.2031,34.3136 95.9481,33.2916 95.9481,31.3716 L95.9481,19.8036 L91.4711,19.8036 L91.4711,31.3716 Z M109.3591,38.1026 L113.8631,38.1026 L114.4261,29.8616 C114.5291,28.4786 114.4261,26.7896 114.4261,26.7896 L114.4781,26.7896 C114.4781,26.7896 115.0921,28.7096 115.5011,29.8616 L117.4211,35.1586 L121.2601,35.1586 L123.1791,29.8616 C123.5891,28.7096 124.2031,26.7896 124.2031,26.7896 L124.2551,26.7896 C124.2551,26.7896 124.1521,28.4786 124.2551,29.8616 L124.8181,38.1026 L129.2971,38.1026 L127.8121,19.8036 L122.9491,19.8036 L120.2881,27.5326 C119.8781,28.7096 119.3651,30.5516 119.3651,30.5516 L119.3151,30.5516 C119.3151,30.5516 118.8031,28.7096 118.3941,27.5326 L115.7321,19.8036 L110.8691,19.8036 L109.3591,38.1026 Z M132.1371,38.1026 L143.9611,38.1026 L143.9611,34.2636 L136.6141,34.2636 L136.6141,30.8086 L142.1951,30.8086 L142.1951,26.9696 L136.6141,26.9696 L136.6141,23.6416 L143.6021,23.6416 L143.6021,19.8036 L132.1371,19.8036 L132.1371,38.1026 Z M146.2891,38.1026 L150.7681,38.1026 L150.7681,31.9346 L152.8661,31.9346 L156.1161,38.1026 L161.1071,38.1026 L157.5501,31.7046 C157.1151,30.9356 156.8591,30.6036 156.8591,30.6036 L156.8591,30.5516 C158.6751,29.6316 159.5971,27.5066 159.5971,25.5616 C159.5971,22.9006 158.2921,21.0326 156.2201,20.2396 C155.4261,19.9316 154.5291,19.8036 152.6611,19.8036 L146.2891,19.8036 L146.2891,38.1026 Z M150.7681,28.0936 L150.7681,23.6416 L152.2781,23.6416 C154.5291,23.6416 155.0421,24.4616 155.0421,25.8436 C155.0421,27.3026 154.1461,28.0936 152.7131,28.0936 L150.7681,28.0936 Z" id="Fill-9" fill="#782F40" mask="url(#mask-2)"></path>
                </g>
            </g>
        </g>
    </g>
</svg>