<?xml version="1.0" encoding="UTF-8"?>
<svg id="Layer_2" data-name="Layer 2" xmlns="http://www.w3.org/2000/svg" viewBox="0 0 221.5 122">
  <defs>
    <style>
      .cls-1 {
        fill: #2b322d;
      }

      .cls-1, .cls-2 {
        stroke-width: 0px;
      }

      .cls-2 {
        fill: #9a8b5a;
      }
    </style>
  </defs>
  <g id="Layer_1-2" data-name="Layer 1">
    <g>
      <path class="cls-1" d="M.5,51.8v-2.2h4.2v2.6c0,3.6,1.8,5.3,4.6,5.3s4.7-1.7,4.7-5.4-1.5-6.1-6.2-9.9C2.3,37.6.4,34.4.4,29.9c0-6,3.2-9.5,9-9.5s8.8,3.5,8.8,9.6v1.6h-4.2v-1.9c0-3.6-1.7-5.3-4.6-5.3s-4.6,1.7-4.6,5.2c0,3.3,1.6,5.6,6.3,9.5,5.5,4.6,7.3,7.8,7.3,12.6,0,6.2-3.3,9.8-9.1,9.8-5.7,0-8.8-3.5-8.8-9.7Z"/>
      <path class="cls-1" d="M34.1,21h8.7c6.2,0,9,3.3,9,9.7v3.4c0,6.5-2.9,9.6-9,9.6h-4.3v17.2h-4.5V21h.1ZM42.8,39.7c3.1,0,4.6-1.4,4.6-5.4v-3.9c0-3.9-1.4-5.4-4.6-5.4h-4.3v14.7s4.3,0,4.3,0Z"/>
      <path class="cls-1" d="M66.6,21h4.5v40h-4.5V21Z"/>
      <path class="cls-1" d="M92.6,25h-7.1v-4.1h18.6v4.1h-7.1v35.9h-4.5V25h.1Z"/>
      <path class="cls-1" d="M118.6,21h15.9v4.1h-11.4v13.6h9.2v4.1h-9.2v18.3h-4.5V21Z"/>
      <path class="cls-1" d="M149.6,21h4.5v40h-4.5V21Z"/>
      <path class="cls-1" d="M170.7,21h8.7c6.3,0,9,2.9,9,9.1v2.5c0,4.4-1.4,7-4.6,8.1v.1c3.4.9,4.7,3.7,4.7,8.3v7.1c0,1.8.1,3.4.6,4.9h-4.5c-.3-1.1-.5-2.2-.5-4.9v-7.4c0-4.3-1.5-5.8-5.3-5.8h-3.6v18h-4.5V21h0ZM178.8,38.9c3.5,0,5.3-1.5,5.3-5.5v-2.9c0-3.9-1.4-5.5-4.7-5.5h-4.2v13.8h3.6v.1Z"/>
      <path class="cls-1" d="M204.6,21h16.4v4.1h-11.9v13h9.7v4.1h-9.7v14.8h11.9v4.1h-16.4V21Z"/>
      <polygon class="cls-1" points="64.7 77.4 64.7 89.6 55.6 89.6 55.6 77.4 54.4 77.4 54.4 104.1 55.6 104.1 55.6 90.7 64.7 90.7 64.7 104.1 65.9 104.1 65.9 77.4 64.7 77.4"/>
      <path class="cls-1" d="M85.5,77c-3.7,0-5.8,2.3-5.8,6.4v14.6c0,4.2,2.1,6.5,5.8,6.5s5.8-2.3,5.8-6.5v-14.6c0-4.1-2-6.4-5.8-6.4ZM90.1,83.4v14.7c0,3.5-1.5,5.2-4.6,5.2s-4.6-1.8-4.6-5.2v-14.7c0-3.5,1.5-5.2,4.6-5.2,3.1,0,4.6,1.7,4.6,5.2Z"/>
      <polygon class="cls-1" points="118.9 77.4 113.2 101.5 107.5 77.5 107.5 77.4 105.8 77.4 105.8 104.1 106.9 104.1 106.9 80.3 112.6 104.1 113.8 104.1 119.4 80.3 119.4 104.1 120.6 104.1 120.6 77.4 118.9 77.4"/>
      <polygon class="cls-1" points="145.1 78.5 145.1 77.4 134.7 77.4 134.7 104.1 145.1 104.1 145.1 102.9 135.9 102.9 135.9 90.7 143.6 90.7 143.6 89.6 135.9 89.6 135.9 78.5 145.1 78.5"/>
      <path class="cls-1" d="M161.9,90.1c-3.7-2.8-4.9-4.6-4.9-7.2,0-3,1.7-4.8,4.4-4.8s4.4,1.8,4.4,4.9v1.2h1.2v-1.2c0-3.8-2.1-6.1-5.6-6.1s-5.7,2.3-5.7,6c0,3,1.4,5,5.4,8.1,3.7,2.7,4.9,4.5,4.9,7.3,0,3.1-1.6,4.9-4.5,4.9s-4.5-1.8-4.5-4.9v-1.6h-1.2v1.6c0,3.8,2.1,6.1,5.7,6.1s5.7-2.3,5.7-6.1c0-3.1-1.3-5.1-5.3-8.2Z"/>
      <rect class="cls-2" width="221.5" height="2.8"/>
      <rect class="cls-2" y="119.2" width="221.5" height="2.8"/>
    </g>
  </g>
</svg>